<?xml version="1.0" encoding="utf-8"?>
<!-- Generator: Adobe Illustrator 26.4.1, SVG Export Plug-In . SVG Version: 6.00 Build 0)  -->
<svg version="1.1" id="Layer_1" xmlns="http://www.w3.org/2000/svg" xmlns:xlink="http://www.w3.org/1999/xlink" x="0px" y="0px"
	 viewBox="0 0 500 55.7" style="enable-background:new 0 0 500 55.7;" xml:space="preserve">
<style type="text/css">
	.st0{fill:#292929;}
</style>
<path class="st0" d="M500,15.1l-4.9-1.4c-4.9-1.4-14.7-4.2-24.5-2.1c-9.8,2.1-19.6,9.2-29.4,8.3c-9.8-0.9-19.6-9.6-29.4-9.6
	s-19.6,9-29.4,11.1c-9.8,2.1-19.6-2.7-29.4-3.4c-9.8-0.7-19.6,2.7-29.4,3.9s-19.6,0.1-29.4-4.2c-9.8-4.3-19.6-12-29.4-13
	c-9.8-1.1-19.5,4.4-29.3,8.1c-9.8,3.8-19.6,5.7-29.4,6.8c-9.8,1.1-19.6,1.2-29.4-1.4c-9.8-2.7-19.6-8.3-29.4-6.8
	c-9.8,1.4-19.6,9.7-29.4,9.6c-9.8-0.1-19.6-8.7-29.4-13.7c-9.8-5.1-19.6-6.5-29.4-6s-19.6,3-29.4,3.2S9.8,2.4,4.9,1.3L0,0.2v55.5
	h4.9c4.9,0,14.7,0,24.5,0s19.6,0,29.4,0s19.6,0,29.4,0s19.6,0,29.4,0s19.6,0,29.4,0c9.8,0,19.6,0,29.4,0c9.8,0,19.6,0,29.4,0
	c9.8,0,19.6,0,29.4,0c9.8,0,19.5,0,29.3,0c9.8,0,19.6,0,29.4,0c9.8,0,19.6,0,29.4,0s19.6,0,29.4,0c9.8,0,19.6,0,29.4,0
	c9.8,0,19.6,0,29.4,0s19.6,0,29.4,0c9.8,0,19.6,0,29.4,0c9.8,0,19.6,0,24.5,0h4.9V15.1z"/>
</svg>
